<svg xmlns="http://www.w3.org/2000/svg" xmlns:xlink="http://www.w3.org/1999/xlink" width="433.47" height="98.384" viewBox="0 0 433.47 98.384">
  <defs>
    <clipPath id="clip-path">
      <rect id="Retângulo_1021" data-name="Retângulo 1021" width="433.47" height="98.384" fill="none"/>
    </clipPath>
  </defs>
  <g id="Grupo_889" data-name="Grupo 889" transform="translate(0 0)">
    <g id="Grupo_888" data-name="Grupo 888" transform="translate(0 0)" clip-path="url(#clip-path)">
      <path id="Caminho_252" data-name="Caminho 252" d="M51.216,68.745a30.2,30.2,0,0,1-22.621,9.5C12.34,78.243,0,65.024,0,48.473s12.34-30.16,28.6-30.16a30.56,30.56,0,0,1,21.935,9.008V0H63.75V76.383H51.216Zm-19-38.878a18.41,18.41,0,0,0,0,36.82,18.412,18.412,0,1,0,0-36.82" transform="translate(0 -0.001)" fill="#fff"/>
      <path id="Caminho_253" data-name="Caminho 253" d="M72.333,71.649c-20.173,0-33.2-13.318-33.2-31.044,0-17.821,12.927-30.944,30.456-30.944,17.43,0,30.357,13.122,30.357,30.944v3.332H53.238c1.175,10.085,7.638,16.352,19.1,16.352,8.716,0,14.787-3.034,19.1-7.343l7.932,8.323c-6.17,5.68-14.2,10.381-27.027,10.381m-18.509-37.9H85.26C83.3,25.819,77.816,20.923,69.592,20.923s-13.808,4.9-15.767,12.828" transform="translate(31.08 7.672)" fill="#fff"/>
      <path id="Caminho_254" data-name="Caminho 254" d="M94.5,29.732V74.778H81.285V29.732H74.234V18.569h7.051V4.957L94.5,2.02V18.569h7.051V29.732Z" transform="translate(58.954 1.603)" fill="#fff"/>
      <path id="Caminho_255" data-name="Caminho 255" d="M123.969,71.649c-20.173,0-33.2-13.318-33.2-31.044,0-17.821,12.927-30.944,30.456-30.944,17.43,0,30.357,13.122,30.357,30.944v3.332H104.874c1.175,10.085,7.638,16.352,19.1,16.352,8.716,0,14.787-3.034,19.1-7.343L151,61.268c-6.17,5.68-14.2,10.381-27.027,10.381m-18.509-37.9H136.9c-1.959-7.932-7.444-12.828-15.668-12.828s-13.808,4.9-15.767,12.828" transform="translate(72.087 7.672)" fill="#fff"/>
      <path id="Caminho_256" data-name="Caminho 256" d="M173.477,67.3c-2.645,1.959-9.4,2.84-13.514,2.84-18.9,0-33-13.026-33-29.966,0-16.844,14.1-29.964,33-29.964,4.112,0,10.772.881,13.514,2.84V24.993h-.393c-3.721-3.036-9.008-3.526-13.121-3.526-11.066,0-19.1,8.031-19.1,18.7,0,10.772,8.031,18.7,19.1,18.7,4.112,0,9.4-.587,13.121-3.526h.393Z" transform="translate(100.828 8.105)" fill="#fff"/>
      <path id="Caminho_257" data-name="Caminho 257" d="M175.669,29.732V74.778H162.449V29.732H155.4V18.569h7.051V4.957L175.669,2.02V18.569h7.051V29.732Z" transform="translate(123.411 1.603)" fill="#fff"/>
      <path id="Caminho_258" data-name="Caminho 258" d="M237.156,40.6c0,17.138-13.81,30.946-32.611,30.946-18.7,0-32.607-13.808-32.607-30.946s13.9-30.944,32.607-30.944c18.8,0,32.611,13.808,32.611,30.944m-51.313,0c0,10.871,7.93,19.684,18.7,19.684,10.869,0,18.8-8.912,18.8-19.684,0-10.869-7.932-19.684-18.8-19.684-10.772,0-18.7,8.815-18.7,19.684" transform="translate(136.546 7.672)" fill="#fff"/>
      <path id="Caminho_259" data-name="Caminho 259" d="M239.389,89.253H225.876l7.736-20.565L207.27,11.5h14.884l17.628,40.835L255.156,11.5h13.709Z" transform="translate(164.605 9.132)" fill="#fff"/>
      <path id="Caminho_260" data-name="Caminho 260" d="M200.113,29.465a4.22,4.22,0,0,1-2.731-7.453,9.486,9.486,0,0,0-2.939-.506,9.619,9.619,0,1,0,9.62,9.62,9.514,9.514,0,0,0-.621-3.308,4.209,4.209,0,0,1-3.33,1.647" transform="translate(146.78 17.078)" fill="#fff"/>
    </g>
  </g>
</svg>
