<svg xmlns="http://www.w3.org/2000/svg" width="28.475" height="22.78" viewBox="0 0 28.475 22.78">
  <path id="Icon_awesome-user-plus" data-name="Icon awesome-user-plus" d="M27.763,9.254H24.916V6.407A.714.714,0,0,0,24.2,5.7H22.78a.714.714,0,0,0-.712.712V9.254H19.221a.714.714,0,0,0-.712.712V11.39a.714.714,0,0,0,.712.712h2.848v2.848a.714.714,0,0,0,.712.712H24.2a.714.714,0,0,0,.712-.712V12.1h2.848a.714.714,0,0,0,.712-.712V9.966A.714.714,0,0,0,27.763,9.254ZM9.966,11.39a5.7,5.7,0,1,0-5.7-5.7A5.695,5.695,0,0,0,9.966,11.39Zm3.987,1.424H13.21a7.745,7.745,0,0,1-6.487,0H5.98A5.981,5.981,0,0,0,0,18.794v1.851A2.136,2.136,0,0,0,2.136,22.78H17.8a2.136,2.136,0,0,0,2.136-2.136V18.794A5.981,5.981,0,0,0,13.953,12.814Z" fill="#fff"/>
</svg>
