<svg xmlns="http://www.w3.org/2000/svg" width="27.301" height="27.301" viewBox="0 0 27.301 27.301">
  <path id="Icon_awesome-history" data-name="Icon awesome-history" d="M27.863,14.187A13.651,13.651,0,0,1,5.646,24.841a1.32,1.32,0,0,1-.1-1.96l.62-.62a1.323,1.323,0,0,1,1.755-.109A10.128,10.128,0,1,0,7.274,6.834l2.794,2.794a.881.881,0,0,1-.623,1.5h-8a.881.881,0,0,1-.881-.881v-8a.881.881,0,0,1,1.5-.623L4.783,4.343a13.65,13.65,0,0,1,23.08,9.844Zm-9.958,4.336.541-.7a1.321,1.321,0,0,0-.232-1.854l-2.24-1.742V8.489a1.321,1.321,0,0,0-1.321-1.321h-.881a1.321,1.321,0,0,0-1.321,1.321v7.466l3.6,2.8A1.321,1.321,0,0,0,17.906,18.523Z" transform="translate(-0.563 -0.563)" fill="#011128"/>
</svg>
