<svg xmlns="http://www.w3.org/2000/svg" width="18.279" height="24.051" viewBox="0 0 18.279 24.051">
  <g id="Icon_ionic-ios-document" data-name="Icon ionic-ios-document" transform="translate(-7.313 -3.938)">
    <path id="Caminho_138" data-name="Caminho 138" d="M21.744,9.891h5.472a.3.3,0,0,0,.3-.3h0a1.78,1.78,0,0,0-.643-1.377L22.285,4.389a1.931,1.931,0,0,0-1.239-.445h0a.444.444,0,0,0-.445.445V8.749A1.142,1.142,0,0,0,21.744,9.891Z" transform="translate(-1.925 -0.001)" fill="#071925"/>
    <path id="Caminho_139" data-name="Caminho 139" d="M17.113,8.748V3.938H9.237A1.93,1.93,0,0,0,7.313,5.862v20.2a1.93,1.93,0,0,0,1.924,1.924H23.667a1.93,1.93,0,0,0,1.924-1.924V11.453H19.819A2.71,2.71,0,0,1,17.113,8.748Z" fill="#071925"/>
  </g>
</svg>
